Coordinates
version=1
nRows=6
nColumns=36
inDegrees=yes

Units are S.I. units (second, meters, Newtons, ...)
If the header above contains a line with 'inDegrees', this indicates whether rotational values are in degrees (yes) or radians (no).

endheader
time	pelvis_tilt	pelvis_list	pelvis_rotation	pelvis_tx	pelvis_ty	pelvis_tz	hip_flexion_r	hip_adduction_r	hip_rotation_r	knee_angle_r	knee_angle_r_beta	ankle_angle_r	subtalar_angle_r	mtp_angle_r	hip_flexion_l	hip_adduction_l	hip_rotation_l	knee_angle_l	knee_angle_l_beta	ankle_angle_l	subtalar_angle_l	mtp_angle_l	lumbar_extension	lumbar_bending	lumbar_rotation	arm_flex_r	arm_add_r	arm_rot_r	elbow_flex_r	pro_sup_r	arm_flex_l	arm_add_l	arm_rot_l	elbow_flex_l	pro_sup_l
      9.88000000	    -14.91283506	     -3.23152095	     -0.33203589	     -0.23589555	      0.93240603	     -0.71983797	     28.42620819	     -8.59046896	     -4.52808249	     16.42034894	      0.28658915	      2.88044716	     -0.73290548	     -7.49999987	     27.79015316	    -17.62414521	    -17.32429863	     16.97598660	      0.29628686	      4.63770287	      3.55895615	     -7.49999987	    -10.83735517	      0.74307186	      2.59615334	     34.21973954	     -9.98158214	     31.15303718	    129.63477869	    109.83065969	     42.81672820	    -11.94894572	     39.45453064	    123.98945499	    108.59738996
      9.89000000	    -14.53631220	     -3.10613515	     -0.49030212	     -0.23451785	      0.93387509	     -0.72108008	     27.57262628	     -8.62511498	     -4.07557294	     15.59741987	      0.27222633	      2.05557272	     -1.28908870	     -7.49999987	     26.88343670	    -17.41763571	    -17.92026764	     16.40682167	      0.28635306	      4.58292665	      4.08402762	     -7.49999987	    -10.88775086	      0.56527090	      2.71302680	     33.38932276	     -9.85498703	     30.95636095	    129.65530473	    109.32717205	     42.03321521	    -12.02147615	     39.45904926	    124.00227576	    107.85573242
      9.90000000	    -14.53867294	     -2.99878468	     -0.53667249	     -0.23329810	      0.93458327	     -0.72243346	     27.20077636	     -8.75300687	     -4.03386127	     14.99865224	      0.26177586	      2.00098537	     -1.18115523	     -7.49999987	     26.56540598	    -17.15140203	    -18.10468942	     16.05988418	      0.28029786	      4.63792650	      4.07730013	     -7.49999987	    -10.44763872	      0.44728240	      2.66935931	     32.52195263	     -9.86285786	     30.92863653	    129.57291489	    110.38199312	     41.16855949	    -12.12449508	     39.33446873	    123.92470928	    108.80260014
      9.91000000	    -14.32625025	     -2.85283755	     -0.61139940	     -0.23195167	      0.93576124	     -0.72376816	     26.49813714	     -8.88317076	     -3.80795747	     14.16950391	      0.24730450	      1.54114341	     -1.11892013	     -7.49999987	     25.82752518	    -16.78426907	    -18.18773976	     15.36496693	      0.26816926	      4.50753299	      3.96527641	     -7.49999987	    -10.25133195	      0.31899268	      2.51004614	     31.83988082	     -9.81560636	     31.18489257	    129.23623565	    110.68535219	     40.21730350	    -12.38429311	     39.11182128	    124.04252747	    108.42297870
      9.92000000	    -14.19314258	     -2.69561623	     -0.70970625	     -0.23063482	      0.93672308	     -0.72502547	     25.95821487	     -9.03505435	     -3.64916608	     13.49243797	      0.23548747	      1.25407438	     -1.05830864	     -7.49999987	     25.21220840	    -16.45847301	    -18.41570339	     14.76255986	      0.25765528	      4.37190633	      3.99930247	     -7.49999987	     -9.98601973	      0.13509689	      2.49700885	     31.06638270	     -9.83568058	     31.38911660	    128.97289874	    111.43754865	     39.41803748	    -12.58363580	     39.11434564	    124.09560606	    108.40269860
      9.93000000	    -13.96923715	     -2.51670671	     -0.69132356	     -0.22926539	      0.93776845	     -0.72652222	     25.28846454	     -9.30254242	     -3.81646986	     12.79642963	      0.22333983	      1.03428369	     -0.66813452	     -7.49999987	     24.54770465	    -16.03320700	    -18.44017173	     14.16367370	      0.24720274	      4.08786531	      3.73442385	     -7.49999987	     -9.83100614	     -0.04307473	      2.42213283	     30.28204596	     -9.80520464	     31.46726429	    128.72108345	    112.15588387	     38.72260568	    -12.74996004	     39.03561113	    124.07056496	    108.40459199
